<?xml version="1.0" standalone="no"?>
<!DOCTYPE svg PUBLIC "-//W3C//DTD SVG 20010904//EN"
 "http://www.w3.org/TR/2001/REC-SVG-20010904/DTD/svg10.dtd">
<svg version="1.0" xmlns="http://www.w3.org/2000/svg"
 width="1024.000000pt" height="1024.000000pt" viewBox="0 0 1024.000000 1024.000000"
 preserveAspectRatio="xMidYMid meet">

<g transform="translate(0.000000,1024.000000) scale(0.100000,-0.100000)"
fill="#000000" stroke="none">
<path d="M2515 8284 c-208 -43 -359 -164 -432 -348 l-28 -71 -3 -1420 c-2
-1002 1 -1439 8 -1485 6 -36 26 -94 43 -130 42 -85 148 -197 227 -239 l60 -32
0 -140 c0 -156 9 -186 72 -246 56 -54 99 -63 297 -63 201 0 231 8 290 75 54
62 61 89 61 246 l0 142 212 -6 c116 -4 444 -7 728 -7 l517 0 5 -137 c5 -150
19 -197 76 -251 59 -55 91 -62 292 -62 183 0 186 1 235 28 28 15 62 45 80 70
30 43 30 45 33 193 3 131 5 149 20 149 9 0 27 3 40 6 21 6 22 4 22 -58 0 -81
31 -148 99 -211 87 -82 8 -77 1287 -77 1097 0 1134 1 1195 20 76 23 146 87
179 163 20 44 21 64 20 283 -1 310 -26 446 -113 619 -120 239 -366 458 -612
543 -155 54 -173 56 -615 60 -281 2 -439 0 -490 -8 -244 -37 -481 -163 -645
-343 l-65 -71 0 1161 c0 676 -4 1181 -9 1209 -35 184 -170 343 -350 413 l-66
26 -1325 1 c-729 1 -1334 0 -1345 -2z m2605 -154 c133 -21 245 -103 302 -218
l33 -67 3 -1310 c2 -1279 2 -1311 -17 -1365 -46 -128 -71 -261 -71 -374 l0
-65 -37 -8 c-21 -4 -681 -8 -1468 -8 l-1430 0 -47 23 c-57 28 -118 99 -156
179 l-27 58 -3 1400 c-1 928 1 1416 8 1448 25 120 107 223 218 275 l57 27 380
5 c751 11 2188 10 2255 0z m2062 -2390 c102 -12 243 -60 338 -115 243 -141
400 -355 460 -624 15 -69 19 -129 20 -317 l1 -232 -28 -32 c-53 -63 14 -60
-1215 -60 -1255 0 -1166 -5 -1216 70 -23 35 -24 37 -19 265 5 250 13 303 74
455 109 270 321 466 602 554 46 15 107 30 135 35 72 12 744 13 848 1z m-4222
-1305 c0 -120 -1 -127 -25 -150 -24 -24 -27 -25 -185 -25 -158 0 -161 1 -185
25 -24 23 -25 30 -25 150 l0 125 210 0 210 0 0 -125z m2180 0 c0 -120 -1 -127
-25 -150 -24 -24 -28 -25 -184 -25 l-159 0 -26 31 c-25 29 -26 37 -26 143 0
62 3 115 6 119 3 3 98 6 210 7 l204 1 0 -126z"/>
<path d="M2682 7741 c-70 -24 -118 -65 -151 -126 l-26 -50 0 -645 c0 -611 1
-647 19 -680 34 -64 63 -95 117 -125 l54 -30 1135 0 c1051 0 1138 1 1171 17
54 25 96 64 127 117 l27 46 0 655 0 655 -27 47 c-36 60 -86 101 -150 122 -45
14 -160 16 -1147 16 -1035 -1 -1099 -2 -1149 -19z m2299 -169 l29 -32 0 -621
0 -621 -29 -29 -29 -29 -1117 0 c-746 0 -1123 3 -1136 10 -49 27 -49 26 -49
681 l0 612 36 33 36 34 1115 -2 1115 -3 29 -33z"/>
<path d="M2755 5736 c-97 -31 -170 -95 -213 -186 -35 -76 -37 -198 -4 -282 29
-73 95 -141 170 -176 49 -23 70 -27 152 -27 81 1 103 4 150 26 120 56 193 178
193 322 0 66 -5 86 -32 141 -39 79 -111 147 -187 175 -63 24 -166 27 -229 7z
m209 -166 c77 -53 108 -167 67 -247 -37 -73 -122 -119 -197 -107 -186 29 -226
261 -63 364 47 29 141 25 193 -10z"/>
<path d="M4715 5741 c-57 -15 -131 -60 -169 -101 -62 -69 -86 -131 -86 -227 0
-110 25 -178 94 -249 73 -75 127 -97 246 -98 83 -1 102 2 151 25 69 33 129 91
166 161 25 48 28 63 28 153 0 89 -3 106 -27 150 -61 117 -170 186 -298 191
-41 2 -88 0 -105 -5z m172 -162 c74 -36 123 -127 109 -201 -28 -152 -218 -216
-325 -109 -153 153 22 404 216 310z"/>
<path d="M6605 7561 c-139 -33 -239 -88 -347 -189 -234 -221 -300 -526 -178
-823 115 -277 396 -465 695 -463 399 2 730 325 738 719 3 148 -17 234 -84 365
-106 205 -280 338 -520 396 -64 16 -226 13 -304 -5z m335 -159 c252 -88 413
-296 425 -547 7 -155 -47 -299 -155 -417 -133 -146 -312 -216 -498 -198 -357
36 -615 403 -521 740 63 229 233 386 474 440 62 14 212 4 275 -18z"/>
<path d="M5030 3663 c-43 -39 -50 -95 -18 -143 59 -87 198 -52 198 49 0 56
-15 88 -49 106 -47 24 -96 19 -131 -12z"/>
<path d="M1870 3105 l0 -515 95 0 95 0 0 179 0 178 138 6 c108 4 150 10 196
27 72 27 132 81 172 152 26 48 29 61 29 148 -1 110 -21 170 -83 233 -83 87
-166 107 -439 107 l-203 0 0 -515z m442 323 c79 -44 106 -118 73 -203 -13 -35
-27 -51 -63 -73 -42 -24 -59 -27 -154 -31 l-108 -3 0 172 0 173 105 -6 c84 -5
114 -11 147 -29z"/>
<path d="M2877 3345 c-92 -25 -166 -95 -181 -170 l-6 -30 76 -17 c43 -10 78
-17 78 -15 21 65 97 111 173 104 85 -9 123 -47 123 -126 l0 -38 -95 -6 c-212
-14 -302 -48 -343 -127 -20 -38 -23 -57 -20 -126 3 -68 7 -87 31 -122 38 -58
94 -84 188 -90 94 -5 175 16 224 59 l35 31 0 -41 0 -41 80 0 80 0 0 295 c0
317 -3 340 -53 393 -66 71 -256 104 -390 67z m263 -470 c0 -79 -35 -126 -111
-146 -88 -24 -169 15 -169 81 0 79 53 107 203 109 l77 1 0 -45z"/>
<path d="M3637 3346 c-57 -16 -89 -38 -131 -90 -28 -34 -31 -46 -35 -117 -3
-71 0 -83 24 -125 34 -57 90 -85 230 -114 55 -11 112 -25 126 -31 53 -21 57
-88 7 -123 -31 -22 -139 -21 -185 1 -19 9 -45 31 -56 49 -13 20 -28 32 -37 29
-8 -2 -43 -9 -78 -16 -57 -11 -62 -14 -56 -33 25 -81 84 -143 163 -172 62 -22
215 -30 279 -14 112 26 179 101 189 209 13 145 -69 218 -281 251 -91 14 -134
33 -146 64 -26 68 51 117 150 95 46 -10 100 -52 100 -77 0 -9 6 -12 16 -8 9 3
47 11 85 18 64 10 69 13 63 32 -21 68 -74 124 -149 157 -63 28 -206 36 -278
15z"/>
<path d="M4400 3346 c-91 -26 -146 -69 -174 -138 -25 -58 -22 -63 47 -75 34
-6 71 -14 81 -19 14 -5 17 -4 12 5 -5 7 7 27 31 50 45 45 107 60 173 40 56
-17 80 -50 80 -108 l0 -47 -127 -11 c-137 -11 -209 -31 -261 -70 -108 -81 -94
-290 24 -359 35 -21 62 -27 129 -32 104 -6 160 8 215 55 l40 35 0 -42 0 -41
83 3 82 3 3 275 c3 324 -3 356 -74 419 -23 20 -60 43 -81 50 -57 18 -229 23
-283 7z m254 -478 c-11 -92 -60 -139 -152 -146 -54 -4 -62 -2 -92 25 -25 23
-32 36 -32 67 0 71 64 105 200 106 l83 0 -7 -52z"/>
<path d="M5572 3340 c-152 -55 -235 -186 -236 -375 -1 -250 156 -401 399 -382
131 10 230 70 282 171 30 59 27 61 -73 71 l-74 7 -27 -33 c-71 -84 -192 -90
-265 -13 -36 39 -74 147 -50 143 4 -1 123 -1 266 0 l259 1 -7 70 c-24 238
-144 361 -350 360 -44 -1 -91 -8 -124 -20z m210 -155 c30 -23 52 -58 62 -97
l6 -28 -160 0 c-121 0 -160 3 -160 13 1 26 47 92 80 115 29 20 45 23 90 20 35
-3 66 -11 82 -23z"/>
<path d="M6491 3347 c-34 -11 -104 -73 -128 -112 -10 -17 -12 -9 -12 48 l-1
67 -85 0 -85 0 2 -377 3 -378 91 -3 92 -3 -2 193 c-1 216 9 269 66 333 29 33
92 61 153 67 l30 3 0 85 0 85 -45 2 c-25 1 -60 -4 -79 -10z"/>
<path d="M6952 3346 c-160 -41 -254 -173 -255 -361 0 -112 6 -152 39 -220 55
-117 176 -185 329 -185 209 0 336 112 366 324 16 116 -5 222 -60 312 -25 41
-96 97 -151 119 -59 23 -198 29 -268 11z m186 -160 c90 -47 133 -177 97 -299
-28 -98 -85 -147 -170 -147 -71 0 -122 34 -158 106 -54 107 -12 293 77 337 39
20 119 21 154 3z"/>
<path d="M7715 3342 c-62 -21 -139 -93 -148 -141 -11 -55 -8 -140 7 -174 28
-67 80 -94 241 -127 108 -22 144 -41 160 -85 8 -24 6 -30 -23 -56 -28 -25 -40
-29 -92 -29 -77 0 -123 19 -152 64 -13 20 -28 34 -34 32 -7 -3 -39 -10 -73
-17 -69 -13 -72 -19 -40 -86 28 -57 80 -98 157 -124 53 -17 81 -21 160 -17
113 5 167 25 224 82 86 87 76 255 -20 318 -40 27 -114 53 -177 62 -128 20
-179 50 -168 99 22 88 163 100 233 20 l31 -35 80 13 c78 12 80 14 74 37 -9 38
-49 90 -92 122 -78 57 -241 77 -348 42z"/>
<path d="M5010 2937 c0 -467 2 -457 -71 -457 l-39 0 0 -91 0 -92 79 5 c103 6
163 39 195 107 20 45 21 59 23 494 l2 447 -94 0 -95 0 0 -413z"/>
<path d="M4145 2243 c-4 -10 -47 -130 -95 -268 -104 -295 -179 -505 -226 -632
-19 -51 -34 -95 -34 -98 0 -3 46 -5 103 -5 l103 0 40 123 39 122 185 0 184 0
39 -122 39 -123 104 0 c57 0 104 2 104 4 0 6 -55 161 -224 636 -70 195 -129
361 -131 368 -3 8 -35 12 -114 12 -94 0 -110 -2 -116 -17z m186 -393 l66 -210
-138 0 -138 0 9 28 c43 142 126 392 130 392 3 0 35 -95 71 -210z"/>
<path d="M5131 1994 c-24 -9 -61 -34 -82 -55 l-39 -39 0 48 0 47 -85 0 -85 0
0 -522 0 -523 90 0 90 0 0 180 c0 99 3 180 8 180 4 0 13 -9 20 -21 20 -32 109
-69 168 -69 159 0 280 103 318 273 27 117 14 264 -32 353 -27 52 -97 118 -147
139 -58 24 -170 28 -224 9z m139 -167 c46 -30 67 -70 81 -152 27 -160 -43
-287 -158 -287 -86 0 -138 43 -164 136 -34 123 15 283 96 316 40 17 111 11
145 -13z"/>
<path d="M6010 2001 c-46 -14 -87 -40 -114 -71 l-26 -32 0 46 0 45 -90 3 -90
3 0 -523 0 -523 91 3 90 3 0 178 c0 97 3 177 7 177 4 0 17 -11 29 -24 42 -44
91 -61 178 -61 69 1 87 4 133 30 134 73 196 223 175 424 -17 169 -79 266 -201
311 -53 20 -135 25 -182 11z m119 -178 c65 -48 99 -197 68 -304 -52 -177 -262
-177 -314 0 -20 71 -13 182 16 239 23 46 74 88 111 94 36 5 90 -8 119 -29z"/>
</g>
</svg>
